<svg xmlns="http://www.w3.org/2000/svg" width="279.4mm" height="215.9mm" viewBox="0 0 1100 850"><rect width="1100" height="850" fill="#050B12"/><text x="550" y="72" text-anchor="middle" font-family="sans-serif" font-size="46" font-weight="bold" fill="#F5F1E8">FIND THE MARKED CIRCLE</text><text x="550" y="116" text-anchor="middle" font-family="sans-serif" font-size="25" fill="#A6EF12">TOUCH YOUR UNLOCKED PHONE TO IT</text><rect x="25" y="190" width="450" height="250" rx="22" fill="#0C1722" stroke="#A6EF12" stroke-width="6"/><circle cx="250" cy="315" r="66" fill="none" stroke="#A6EF12" stroke-width="12"/><circle cx="250" cy="315" r="10" fill="#A6EF12"/><text x="250" y="237" text-anchor="middle" font-family="sans-serif" font-size="32" font-weight="bold" fill="#F5F1E8">CASSETTE</text><text x="250" y="423" text-anchor="middle" font-family="sans-serif" font-size="24" font-weight="bold" fill="#A6EF12">FLAT REAR</text><rect x="625" y="190" width="450" height="250" rx="22" fill="#0C1722" stroke="#1CB5F4" stroke-width="6"/><circle cx="850" cy="315" r="66" fill="none" stroke="#1CB5F4" stroke-width="12"/><circle cx="850" cy="315" r="10" fill="#1CB5F4"/><text x="850" y="237" text-anchor="middle" font-family="sans-serif" font-size="32" font-weight="bold" fill="#F5F1E8">FLOPPY</text><text x="850" y="423" text-anchor="middle" font-family="sans-serif" font-size="24" font-weight="bold" fill="#1CB5F4">REAR HUB LANDING</text><rect x="25" y="525" width="450" height="250" rx="22" fill="#0C1722" stroke="#FF3476" stroke-width="6"/><circle cx="250" cy="650" r="66" fill="none" stroke="#FF3476" stroke-width="12"/><circle cx="250" cy="650" r="10" fill="#FF3476"/><text x="250" y="572" text-anchor="middle" font-family="sans-serif" font-size="32" font-weight="bold" fill="#F5F1E8">VHS</text><text x="250" y="758" text-anchor="middle" font-family="sans-serif" font-size="24" font-weight="bold" fill="#FF3476">FLAT REAR</text><rect x="625" y="525" width="450" height="250" rx="22" fill="#0C1722" stroke="#FFB000" stroke-width="6"/><circle cx="850" cy="650" r="66" fill="none" stroke="#FFB000" stroke-width="12"/><circle cx="850" cy="650" r="10" fill="#FFB000"/><text x="850" y="572" text-anchor="middle" font-family="sans-serif" font-size="32" font-weight="bold" fill="#F5F1E8">TRAILER SWIFT</text><text x="850" y="758" text-anchor="middle" font-family="sans-serif" font-size="24" font-weight="bold" fill="#FFB000">UNDER THE BASE</text><text x="550" y="808" text-anchor="middle" font-family="sans-serif" font-size="20" font-weight="bold" fill="#F5F1E8">Old media. Loud band. One tap.</text><text x="550" y="834" text-anchor="middle" font-family="sans-serif" font-size="17" fill="#FF3476">NON-METALLIC PAPER, VINYL, AND INK ONLY.</text></svg>
