<?xml version="1.0" encoding="UTF-8"?>
<svg xmlns="http://www.w3.org/2000/svg" width="215.9mm" height="279.4mm" viewBox="0 0 215.9 279.4">
<metadata>PRINT NFC OVERLAYS ONLY ON NON-METALLIC PAPER OR VINYL. NEVER USE FOIL, METALLIC INK, OR METAL-BACKED LABEL STOCK.</metadata><rect width="100%" height="100%" fill="white"/><text x="107.95" y="9" text-anchor="middle" font-family="DejaVu Sans, sans-serif" font-size="5" font-weight="900">RAD DAD MICRO REPLICAS v7 | MIXED 20-UP</text><defs><g id="overlay-cassette"><circle cx="12.5" cy="12.5" r="12.5" fill="#050B12"/><circle cx="12.5" cy="12.5" r="10.95" fill="none" stroke="#A6EF12" stroke-width="0.48"/><text x="12.5" y="3.6" text-anchor="middle" dominant-baseline="middle" font-family="DejaVu Sans, sans-serif" font-size="1.7" font-weight="900" font-stretch="condensed" fill="#A6EF12" textLength="10.8" lengthAdjust="spacingAndGlyphs">C-69 // SIDE A</text><text x="12.5" y="6.25" text-anchor="middle" dominant-baseline="middle" font-family="DejaVu Sans, sans-serif" font-size="2.2" font-weight="900" font-stretch="condensed" fill="#F5F1E8" textLength="15.0" lengthAdjust="spacingAndGlyphs">RAD DAD</text><rect x="3.5" y="7.8" width="18.0" height="9.1" fill="#0C1722" stroke="#F5F1E8" stroke-width="0.48" rx="1.0"/><circle cx="7.7" cy="12.05" r="2.55" fill="none" stroke="#A6EF12" stroke-width="0.88"/><circle cx="7.7" cy="12.05" r="1.0" fill="#F5F1E8"/><circle cx="7.7" cy="12.05" r="0.42" fill="#050B12"/><circle cx="17.3" cy="12.05" r="2.55" fill="none" stroke="#A6EF12" stroke-width="0.88"/><circle cx="17.3" cy="12.05" r="1.0" fill="#F5F1E8"/><circle cx="17.3" cy="12.05" r="0.42" fill="#050B12"/><rect x="10.3" y="10.25" width="4.4" height="3.55" fill="#F5F1E8" rx="0.45"/><rect x="11.2" y="10.78" width="2.6" height="2.5" fill="#0C1722" rx="0.25"/><text x="12.5" y="19.35" text-anchor="middle" dominant-baseline="middle" font-family="DejaVu Sans, sans-serif" font-size="3.0" font-weight="900" font-stretch="condensed" fill="#A6EF12" textLength="8.4" lengthAdjust="spacingAndGlyphs">TAP</text><text x="12.5" y="22.1" text-anchor="middle" dominant-baseline="middle" font-family="DejaVu Sans, sans-serif" font-size="1.55" font-weight="900" font-stretch="condensed" fill="#F5F1E8" textLength="7.6" lengthAdjust="spacingAndGlyphs">TO PLAY</text></g><g id="overlay-floppy"><circle cx="12.5" cy="12.5" r="12.5" fill="#050B12"/><circle cx="12.5" cy="12.5" r="10.95" fill="none" stroke="#1CB5F4" stroke-width="0.48"/><text x="12.5" y="3.8" text-anchor="middle" dominant-baseline="middle" font-family="DejaVu Sans, sans-serif" font-size="1.75" font-weight="900" font-stretch="condensed" fill="#1CB5F4" textLength="9.8" lengthAdjust="spacingAndGlyphs">3.69 MB</text><circle cx="12.5" cy="11.7" r="5.75" fill="#A9B1B8" stroke="#F5F1E8" stroke-width="0.35"/><circle cx="12.5" cy="11.7" r="4.45" fill="#555E68"/><circle cx="12.5" cy="11.7" r="3.95" fill="#A9B1B8" stroke="#555E68" stroke-width="0.28"/><circle cx="12.5" cy="11.7" r="1.38" fill="#050B12"/><rect x="15.15" y="10.75" width="2.3" height="1.9" fill="#050B12" rx="0.3"/><path d="M 8.104407232872248 9.650301430557608 A 4.85 4.85 0 0 1 16.520832226891955 8.987914418166879" fill="none" stroke="#F5F1E8" stroke-width="0.3" stroke-linecap="round"/><path d="M 16.930695469566615 13.67267271891763 A 4.85 4.85 0 0 1 8.479167773108049 14.412085581833121" fill="none" stroke="#555E68" stroke-width="0.3" stroke-linecap="round"/><text x="12.5" y="18.8" text-anchor="middle" dominant-baseline="middle" font-family="DejaVu Sans, sans-serif" font-size="1.95" font-weight="900" font-stretch="condensed" fill="#F5F1E8" textLength="13.2" lengthAdjust="spacingAndGlyphs">RAD DAD</text><text x="12.5" y="21.45" text-anchor="middle" dominant-baseline="middle" font-family="DejaVu Sans, sans-serif" font-size="2.8" font-weight="900" font-stretch="condensed" fill="#1CB5F4" textLength="7.4" lengthAdjust="spacingAndGlyphs">TAP</text></g><g id="overlay-vhs"><circle cx="12.5" cy="12.5" r="12.5" fill="#050B12"/><circle cx="12.5" cy="12.5" r="10.95" fill="none" stroke="#FF3476" stroke-width="0.48"/><text x="12.5" y="3.35" text-anchor="middle" dominant-baseline="middle" font-family="DejaVu Sans, sans-serif" font-size="1.78" font-weight="900" font-stretch="condensed" fill="#FF3476" textLength="7.8" lengthAdjust="spacingAndGlyphs">T-369</text><text x="12.5" y="5.25" text-anchor="middle" dominant-baseline="middle" font-family="DejaVu Sans, sans-serif" font-size="1.92" font-weight="900" font-stretch="condensed" fill="#F5F1E8" textLength="12.8" lengthAdjust="spacingAndGlyphs">RAD DAD</text><rect x="2.95" y="6.25" width="19.1" height="11.85" fill="#0C1722" stroke="#F5F1E8" stroke-width="0.48" rx="0.85"/><rect x="3.45" y="6.8" width="18.1" height="2.2" fill="#555E68" stroke="#FF3476" stroke-width="0.38" rx="0.35"/><text x="12.5" y="7.92" text-anchor="middle" dominant-baseline="middle" font-family="DejaVu Sans, sans-serif" font-size="1.58" font-weight="900" font-stretch="condensed" fill="#F5F1E8" textLength="5.0" lengthAdjust="spacingAndGlyphs">VHS</text><rect x="4.15" y="9.5" width="7.6" height="5.55" fill="#050B12" stroke="#F5F1E8" stroke-width="0.34" rx="0.5"/><circle cx="7.95" cy="12.28" r="2.0" fill="none" stroke="#FF3476" stroke-width="0.62"/><circle cx="7.95" cy="12.28" r="0.67" fill="#F5F1E8"/><rect x="13.25" y="9.5" width="7.6" height="5.55" fill="#050B12" stroke="#F5F1E8" stroke-width="0.34" rx="0.5"/><circle cx="17.05" cy="12.28" r="2.0" fill="none" stroke="#FF3476" stroke-width="0.62"/><circle cx="17.05" cy="12.28" r="0.67" fill="#F5F1E8"/><polygon points="3.85,15.65 21.15,15.65 19.7,17.35 5.3,17.35" fill="#F5F1E8" stroke="#F5F1E8" stroke-width="0.34" stroke-linecap="round" stroke-linejoin="round"/><polyline points="6.15,16.5 18.85,16.5" fill="none" stroke="#0C1722" stroke-width="0.4" stroke-linecap="round" stroke-linejoin="round"/><text x="12.5" y="19.55" text-anchor="middle" dominant-baseline="middle" font-family="DejaVu Sans, sans-serif" font-size="3.1" font-weight="900" font-stretch="condensed" fill="#FF3476" textLength="7.5" lengthAdjust="spacingAndGlyphs">TAP</text><text x="12.5" y="22.1" text-anchor="middle" dominant-baseline="middle" font-family="DejaVu Sans, sans-serif" font-size="1.6" font-weight="900" font-stretch="condensed" fill="#F5F1E8" textLength="8.0" lengthAdjust="spacingAndGlyphs">TO PLAY</text></g><g id="overlay-trailer_swift"><circle cx="12.5" cy="12.5" r="12.5" fill="#050B12"/><circle cx="12.5" cy="12.5" r="10.95" fill="none" stroke="#FFB000" stroke-width="0.48"/><text x="12.5" y="3.6" text-anchor="middle" dominant-baseline="middle" font-family="DejaVu Sans, sans-serif" font-size="1.8" font-weight="900" font-stretch="condensed" fill="#F5F1E8" textLength="10.2" lengthAdjust="spacingAndGlyphs">TRAILER</text><text x="12.5" y="6.35" text-anchor="middle" dominant-baseline="middle" font-family="DejaVu Sans, sans-serif" font-size="2.6" font-weight="900" font-stretch="condensed" fill="#FFB000" textLength="9.8" lengthAdjust="spacingAndGlyphs">SWIFT</text><polygon points="5.2,8.4 9.2,8.4 7.5,12.2 10.2,12.2 5.5,18.0 6.9,13.7 4.5,13.7" fill="#FF3476" stroke="#FF3476" stroke-width="0.5" stroke-linecap="round" stroke-linejoin="round"/><polygon points="19.8,8.4 15.8,8.4 17.5,12.2 14.8,12.2 19.5,18.0 18.1,13.7 20.5,13.7" fill="#FF3476" stroke="#FF3476" stroke-width="0.5" stroke-linecap="round" stroke-linejoin="round"/><text x="12.5" y="13.1" text-anchor="middle" dominant-baseline="middle" font-family="DejaVu Sans, sans-serif" font-size="4.0" font-weight="900" font-stretch="condensed" fill="#F5F1E8" textLength="8.2" lengthAdjust="spacingAndGlyphs">TAP</text><text x="12.5" y="18.0" text-anchor="middle" dominant-baseline="middle" font-family="DejaVu Sans, sans-serif" font-size="2.2" font-weight="900" font-stretch="condensed" fill="#FFB000" textLength="13.0" lengthAdjust="spacingAndGlyphs">THE BASE</text><text x="12.5" y="21.75" text-anchor="middle" dominant-baseline="middle" font-family="DejaVu Sans, sans-serif" font-size="1.65" font-weight="900" font-stretch="condensed" fill="#1CB5F4" textLength="8.4" lengthAdjust="spacingAndGlyphs">RAD DAD</text></g></defs><circle cx="29.5" cy="35.0" r="13.5" fill="#050B12"/><circle cx="29.5" cy="85.0" r="13.5" fill="#050B12"/><circle cx="29.5" cy="135.0" r="13.5" fill="#050B12"/><circle cx="29.5" cy="185.0" r="13.5" fill="#050B12"/><circle cx="29.5" cy="235.0" r="13.5" fill="#050B12"/><circle cx="81.80000000000001" cy="35.0" r="13.5" fill="#050B12"/><circle cx="81.80000000000001" cy="85.0" r="13.5" fill="#050B12"/><circle cx="81.80000000000001" cy="135.0" r="13.5" fill="#050B12"/><circle cx="81.80000000000001" cy="185.0" r="13.5" fill="#050B12"/><circle cx="81.80000000000001" cy="235.0" r="13.5" fill="#050B12"/><circle cx="134.10000000000002" cy="35.0" r="13.5" fill="#050B12"/><circle cx="134.10000000000002" cy="85.0" r="13.5" fill="#050B12"/><circle cx="134.10000000000002" cy="135.0" r="13.5" fill="#050B12"/><circle cx="134.10000000000002" cy="185.0" r="13.5" fill="#050B12"/><circle cx="134.10000000000002" cy="235.0" r="13.5" fill="#050B12"/><circle cx="186.4" cy="35.0" r="13.5" fill="#050B12"/><circle cx="186.4" cy="85.0" r="13.5" fill="#050B12"/><circle cx="186.4" cy="135.0" r="13.5" fill="#050B12"/><circle cx="186.4" cy="185.0" r="13.5" fill="#050B12"/><circle cx="186.4" cy="235.0" r="13.5" fill="#050B12"/><use href="#overlay-cassette" x="17.0" y="22.5"/><use href="#overlay-cassette" x="17.0" y="72.5"/><use href="#overlay-cassette" x="17.0" y="122.5"/><use href="#overlay-cassette" x="17.0" y="172.5"/><use href="#overlay-cassette" x="17.0" y="222.5"/><use href="#overlay-floppy" x="69.30000000000001" y="22.5"/><use href="#overlay-floppy" x="69.30000000000001" y="72.5"/><use href="#overlay-floppy" x="69.30000000000001" y="122.5"/><use href="#overlay-floppy" x="69.30000000000001" y="172.5"/><use href="#overlay-floppy" x="69.30000000000001" y="222.5"/><use href="#overlay-vhs" x="121.60000000000002" y="22.5"/><use href="#overlay-vhs" x="121.60000000000002" y="72.5"/><use href="#overlay-vhs" x="121.60000000000002" y="122.5"/><use href="#overlay-vhs" x="121.60000000000002" y="172.5"/><use href="#overlay-vhs" x="121.60000000000002" y="222.5"/><use href="#overlay-trailer_swift" x="173.9" y="22.5"/><use href="#overlay-trailer_swift" x="173.9" y="72.5"/><use href="#overlay-trailer_swift" x="173.9" y="122.5"/><use href="#overlay-trailer_swift" x="173.9" y="172.5"/><use href="#overlay-trailer_swift" x="173.9" y="222.5"/><circle cx="29.5" cy="35.0" r="12.5" fill="none" stroke="#B9C0C6" stroke-width="0.15"/><circle cx="29.5" cy="85.0" r="12.5" fill="none" stroke="#B9C0C6" stroke-width="0.15"/><circle cx="29.5" cy="135.0" r="12.5" fill="none" stroke="#B9C0C6" stroke-width="0.15"/><circle cx="29.5" cy="185.0" r="12.5" fill="none" stroke="#B9C0C6" stroke-width="0.15"/><circle cx="29.5" cy="235.0" r="12.5" fill="none" stroke="#B9C0C6" stroke-width="0.15"/><circle cx="81.80000000000001" cy="35.0" r="12.5" fill="none" stroke="#B9C0C6" stroke-width="0.15"/><circle cx="81.80000000000001" cy="85.0" r="12.5" fill="none" stroke="#B9C0C6" stroke-width="0.15"/><circle cx="81.80000000000001" cy="135.0" r="12.5" fill="none" stroke="#B9C0C6" stroke-width="0.15"/><circle cx="81.80000000000001" cy="185.0" r="12.5" fill="none" stroke="#B9C0C6" stroke-width="0.15"/><circle cx="81.80000000000001" cy="235.0" r="12.5" fill="none" stroke="#B9C0C6" stroke-width="0.15"/><circle cx="134.10000000000002" cy="35.0" r="12.5" fill="none" stroke="#B9C0C6" stroke-width="0.15"/><circle cx="134.10000000000002" cy="85.0" r="12.5" fill="none" stroke="#B9C0C6" stroke-width="0.15"/><circle cx="134.10000000000002" cy="135.0" r="12.5" fill="none" stroke="#B9C0C6" stroke-width="0.15"/><circle cx="134.10000000000002" cy="185.0" r="12.5" fill="none" stroke="#B9C0C6" stroke-width="0.15"/><circle cx="134.10000000000002" cy="235.0" r="12.5" fill="none" stroke="#B9C0C6" stroke-width="0.15"/><circle cx="186.4" cy="35.0" r="12.5" fill="none" stroke="#B9C0C6" stroke-width="0.15"/><circle cx="186.4" cy="85.0" r="12.5" fill="none" stroke="#B9C0C6" stroke-width="0.15"/><circle cx="186.4" cy="135.0" r="12.5" fill="none" stroke="#B9C0C6" stroke-width="0.15"/><circle cx="186.4" cy="185.0" r="12.5" fill="none" stroke="#B9C0C6" stroke-width="0.15"/><circle cx="186.4" cy="235.0" r="12.5" fill="none" stroke="#B9C0C6" stroke-width="0.15"/><text x="29.5" y="253" text-anchor="middle" font-family="DejaVu Sans, sans-serif" font-size="2.8" font-weight="bold">CASSETTE</text><text x="81.80000000000001" y="253" text-anchor="middle" font-family="DejaVu Sans, sans-serif" font-size="2.8" font-weight="bold">FLOPPY</text><text x="134.10000000000002" y="253" text-anchor="middle" font-family="DejaVu Sans, sans-serif" font-size="2.8" font-weight="bold">VHS</text><text x="186.4" y="253" text-anchor="middle" font-family="DejaVu Sans, sans-serif" font-size="2.8" font-weight="bold">TRAILER SWIFT</text><text x="107.95" y="262" text-anchor="middle" font-family="DejaVu Sans, sans-serif" font-size="2.7" font-weight="bold">PRINT AT 100% | EACH FINISHED CIRCLE IS 25 MM</text><text x="107.95" y="267.5" text-anchor="middle" font-family="DejaVu Sans, sans-serif" font-size="2.35" font-weight="bold">CUT ON 25 MM HAIRLINE | 1 MM BLEED PROTECTS SMALL REGISTRATION ERRORS</text><text x="107.95" y="273" text-anchor="middle" font-family="DejaVu Sans, sans-serif" font-size="2.35" font-weight="bold" fill="#FF3476">NON-METALLIC PAPER OR VINYL ONLY | NO FOIL | NO METAL-BACKED STOCK</text></svg>
